<svg enable-background="new 0 0 32 32" viewBox="0 0 32 32" xmlns="http://www.w3.org/2000/svg"><path d="m26 30.86c-1.853 0-3.36-1.508-3.36-3.36h.721c0 1.456 1.184 2.64 2.64 2.64s2.64-1.184 2.64-2.64-1.184-2.64-2.64-2.64h-21.001v-.72h21c1.853 0 3.36 1.508 3.36 3.36s-1.507 3.36-3.36 3.36zm-1-10h-15v-.72h15c1.456 0 2.64-1.184 2.64-2.64s-1.184-2.64-2.64-2.64-2.64 1.185-2.64 2.64h-.72c0-1.853 1.508-3.36 3.36-3.36s3.36 1.507 3.36 3.36-1.507 3.36-3.36 3.36zm-16-3.72h-3.364c-2.478-.031-4.276-1.706-4.276-3.981 0-2.37 1.916-4.299 4.271-4.299.742 0 1.477.196 2.125.565.105.06.235.063.344.007.108-.056.181-.164.192-.286.38-4.018 3.805-7.287 7.634-7.287 3.093 0 5.964 2.038 7.144 5.07.071.18.269.276.451.21.486-.165 1.27-.28 1.905-.28 2.875 0 5.213 2.339 5.213 5.214h.721c0-3.272-2.662-5.934-5.934-5.934-.502 0-1.212.069-1.811.223-1.357-3.137-4.408-5.223-7.689-5.223-4.024 0-7.639 3.285-8.286 7.422-.632-.276-1.318-.421-2.009-.421-2.752 0-4.991 2.251-4.991 5.019 0 2.687 2.097 4.664 4.991 4.702h3.369z"/><path d="m0 0h32v32h-32z" fill="none"/></svg>