<svg height="20" viewBox="0 0 20 20" width="20" xmlns="http://www.w3.org/2000/svg"><path d="m10.0261584 15.7981768c.2454599 0 .4496084.1768752.4919443.4101244l.0080557.0898756v1.2138394c0 .2761424-.2238576.5-.5.5-.24545989 0-.44960837-.1768752-.49194433-.4101244l-.00805567-.0898756v-1.2138394c0-.2761424.22385762-.5.5-.5zm4.797313-1.7086936.8583141.8583141c.1952621.1952622.1952621.5118446 0 .7071068-.1952622.1952621-.5118447.1952621-.7071068 0l-.8583141-.8583141c-.1952621-.1952621-.1952621-.5118446 0-.7071068.1952622-.1952621.5118447-.1952621.7071068 0zm-8.88791788 0c.19526215.1952622.19526215.5118447 0 .7071068l-.85831406.8583141c-.19526215.1952621-.51184464.1952621-.70710678 0-.19526215-.1952622-.19526215-.5118446 0-.7071068l.85831406-.8583141c.19526215-.1952621.51184463-.1952621.70710678 0zm4.10093368-8.55547645c2.4750398 0 4.481456 2.00641623 4.481456 4.48145605 0 2.4750399-2.0064162 4.4814561-4.481456 4.4814561-2.47503988 0-4.48145611-2.0064162-4.48145611-4.4814561 0-2.47503982 2.00641623-4.48145605 4.48145611-4.48145605zm0 1c-1.92275513 0-3.48145611 1.55870098-3.48145611 3.48145605 0 1.9227551 1.55870098 3.4814561 3.48145611 3.4814561 1.9227551 0 3.481456-1.558701 3.481456-3.4814561 0-1.92275507-1.5587009-3.48145605-3.481456-3.48145605zm7.4779005 2.99896897c.2761423 0 .5.22385763.5.49999998 0 .2454599-.1768752.4496084-.4101244.4919444l-.0898756.0080556h-1.2138394c-.2761424 0-.5-.2238576-.5-.5 0-.24545987.1768751-.44960835.4101243-.49194431l.0898757-.00805567zm-13.75644779-.02331133c.27614238 0 .5.22385763.5.50000001 0 .2454599-.17687516.4496084-.41012436.4919443l-.08987564.0080557h-1.21383938c-.27614238 0-.5-.2238576-.5-.5 0-.2454599.17687516-.44960838.41012436-.49194434l.08987564-.00805567zm1.25005166-5.18608622.06924789.05785545.85831406.85831407c.19526215.19526214.19526215.51184463 0 .70710678-.17356635.17356635-.44299075.1928515-.63785889.05785545l-.06924789-.05785545-.85831406-.85831406c-.19526215-.19526215-.19526215-.51184464 0-.70710679.17356635-.17356635.44299075-.1928515.63785889-.05785545zm10.67379393.05785546c.1735663.17356635.1928515.44299075.0578554.63785889l-.0578554.06924789-.8583141.85831406c-.1952621.19526214-.5118446.19526214-.7071068 0-.1735663-.17356635-.1928515-.44299075-.0578554-.6378589l.0578554-.06924788.8583141-.85831406c.1952621-.19526215.5118446-.19526215.7071068 0zm-5.6523421-2.35711212c.2454599 0 .4496084.17687516.4919443.41012436l.0080557.08987564v1.21383938c0 .27614238-.2238576.5-.5.5-.24545987 0-.44960836-.17687516-.49194432-.41012437l-.00805567-.08987563v-1.21383938c0-.27614238.22385763-.5.49999999-.5z" fill="#212121"/></svg>