<svg viewBox="0 0 512 512" xmlns="http://www.w3.org/2000/svg" xmlns:xlink="http://www.w3.org/1999/xlink"><clipPath id="a"><path d="m512 306h-216a21.5 21.5 0 0 0 -14 5.3l-26 22.7-26-22.7a21.5 21.5 0 0 0 -14-5.3h-216v-306h512z"/></clipPath><symbol id="b" viewBox="0 0 375 375"><circle cx="187.5" cy="187.5" fill="none" r="84" stroke="#fbbf24" stroke-miterlimit="10" stroke-width="15"/><path d="m187.5 57.2v-49.7m0 360v-49.7m92.2-222.5 35-35m-254.4 254.4 35.1-35.1m0-184.4-35-35m254.5 254.5-35.1-35.1m-222.6-92.1h-49.7m360 0h-49.7" fill="none" stroke="#fbbf24" stroke-linecap="round" stroke-miterlimit="10" stroke-width="15"/></symbol><g clip-path="url(#a)"><use height="375" transform="translate(68.5 104.5)" width="375" xlink:href="#b"/></g><path d="m128 332h88l40 36 40-36h88" fill="none" stroke="#374151" stroke-linecap="round" stroke-linejoin="round" stroke-width="18"/></svg>